<?xml version="1.0" encoding="UTF-8"?>
<svg data-bbox="0.252 0.156 1279.705 821.689" viewBox="0 0 1280 822" height="1096" width="1706.667" xmlns="http://www.w3.org/2000/svg" data-type="shape">
    <g>
        <path d="M742.8 1.1C731.4 2.7 679 17.7 432.5 89.5 202 156.7 158.2 169 144 170.6l-6.5.8 9 2.8c11.1 3.5 19.7 3.8 31.5 1 9.4-2.3 14.7-3.8 161.5-47.2 56.1-16.6 121.8-36 146-43.1 24.2-7.2 59.8-17.7 79-23.4 19.3-5.7 69.2-20.5 111-32.8l76-22.5 32 2.9c46.7 4.1 124 10.6 146.6 12.3 16.9 1.3 20.5 1.3 26.3.1 7.5-1.6 17.6-5.8 17.6-7.4 0-1.5-3.4-1.9-45-4.6C784.5.1 757.8-1.1 742.8 1.1"/>
        <path d="M976.9 35c-15 2.6-130.8 37.2-422.9 126.5C356.9 221.8 339.2 227 326.1 229c-8.3 1.2-13.6 3.3-14.6 5.8-1.9 4.9-3.5 56.4-1.9 60.6 1 2.6 4.7 1.9 23.3-4.3 9.7-3.3 60.4-19.7 112.6-36.6 52.3-16.8 109-35.2 126-40.9 31.5-10.6 42.2-13.2 48.5-11.8 9 2 15.1-.3-182 68.8l-123.5 43.2.3 6.9c.1 3.8.6 8.2 1.1 9.8.7 2.6 1.2 3 3.7 2.7 3.5-.4 15.6-4.4 33.9-11.2 21.6-8.1 70.9-24.8 192.5-65.5 61.3-20.5 124.8-41.8 141-47.4 34.6-11.8 41.2-12.9 32.3-5.1-6.2 5.5-17.1 9.9-85.8 35.2-26.9 9.9-81.6 30-121.5 44.8-82.1 30.4-128 47.3-158.5 58.5-11.5 4.3-23.1 8.8-25.6 10.1-7.3 3.6-7.5 4-6 15.7 2.4 20.1 21.6 146.1 23.7 155.9l.5 2.7 10.2-3.6c11.8-4 48.1-17.5 127.7-47.3 107.8-40.3 161.6-59.5 164.4-58.4 1.8.7 2.9 4.1 2.4 7.5s-4.3 5.3-41.3 19.9c-18.1 7.2-37.5 14.9-43 17.1-5.5 2.3-30 11.9-54.5 21.4-78.9 30.6-134.2 52.5-145 57.2-15.8 6.9-20.2 10.9-14.7 13.4 2.6 1.2 7.1-.5 208.8-77.4 141.8-54.1 151.6-57.6 157.7-55.7 1.5.5 3.9 1.1 5.5 1.4 3.2.7 3.7 2.6.6 2.6-3.9 0-65.8 24.2-207.9 81.3-170.9 68.7-162.5 65.1-162.3 68.4.8 13.3.8 15.4-.7 16.3-2.6 1.7-9.6 1.1-17.8-1.5-20.3-6.4-32-13.2-41.5-23.9l-5.8-6.6.3-30.2c.3-29.7.3-30.3-1.7-30.3-1.8 0-2.1-.9-2.7-8.5-1.3-16.6-7.8-39.8-14.7-52.7-4-7.3-6.7-8.9-10.1-5.8-2.9 2.6-4 9.3-5.5 34.4-1.7 26.7-2.8 35.9-5.5 46.7-3.9 15.3-12 25.5-25.4 32.5-3.6 1.9-6.6 3.7-6.6 4 0 .8 74.4 36.9 93.1 45.2 20.2 9 28.9 11.8 38.4 12.4 13.4.9 24.2-2.6 93.5-29.9 89.4-35.3 119.3-46.8 140-54 12.5-4.3 43-16.6 91.5-37 259.6-109 330.6-139.3 351.6-149.8 14.4-7.3 19.9-14.6 19.9-26.4 0-10-8.9-58.7-29.1-158.6C1000.2 72.8 998 59.3 998 39.3c0-.8-1.2-1.3-3-1.3-1.7 0-3.9-.9-5-2-2.1-2.1-5.1-2.3-13.1-1"/>
        <path d="M1161.5 126.8c-11.7 1-97.2 18.6-108 22.1-8 2.7-26.9 13.3-27.3 15.3-.8 4.3 11 6.5 25.7 4.8 7-.9 10.6-.9 11.3-.2 1.5 1.5-2.3 3.7-14.3 8.2-15.1 5.8-14.5 4.3-9.9 24 2.1 9.1 4.6 20.5 5.6 25.4l1.8 8.9 12-.6c6.7-.4 14.6-1.4 17.6-2.3 8.9-2.6 28.1-11.4 67.7-31 39.2-19.4 38.4-18.8 49.8-31.7 4.7-5.3 9.4-7 20.2-7.1 9.3-.1 10.6 1 6.8 6.1-1.6 2.1-20.5 21.3-42 42.8-34.6 34.5-129.5 133-188.8 196.2-19.3 20.5-26.6 27.3-29.4 27.3-.6 0-2.3 1.9-3.7 4.2-1.4 2.4-7.7 10.1-14 17.2-17.5 19.6-24.2 29.4-38.1 55.7-13.5 25.7-13 23.7-13 50.4 0 26.3.4 27.9 9.4 41.7 16.8 25.8 48.7 44.3 98.6 57.3 24.5 6.4 30.6 7.4 136 21 35.6 4.6 119.7 13.3 134.5 13.8 6.4.3 7.5-2.3 6.1-14.6-1.9-15.5-.7-13.9-12.4-16.6-44.4-10-89.9-17.3-164.2-26.1-70.4-8.4-114.9-17.2-139.1-27.6-4.5-1.9-9.9-3.8-11.9-4.1-2.5-.4-3.9-1.2-4.3-2.5-.2-1-2.1-2.8-4.2-3.8-7.8-4-17.4-18.7-19.8-30.4-3.8-18.2 14.5-58.6 42.3-93.6 25.6-32.3 46.4-54.2 150.4-158 55.4-55.3 104.5-104.8 109.2-110 25.7-28.5 35.7-48.4 33.5-66.4-.6-4.9-1.4-6.6-4-9.2-4.6-4.6-9.1-5.6-27-6.1-13.5-.4-17.6-.2-28.2 1.8-12.1 2.2-12.5 2.2-18.1.5-7.4-2.2-13-3.2-16.8-2.8"/>
        <path d="M112.7 185c-6.5 1.1-12 4.6-19.9 12.7l-6.8 6.8 5.9 34.5c3.3 19 6.2 35.7 6.6 37.2 1.1 4.3 3.7 6 8.6 5.6 4.1-.3 4.4-.5 4.7-3.5.2-1.8-1.1-8.6-2.9-15-5-18.6-5.8-23.2-5.9-32.9 0-14.4 3.1-22.4 12.4-31.4l4.6-4.4 71.3 17.7c83.8 20.8 85.8 21.3 88.9 19.6 3.2-1.6 9.8-8.1 9.8-9.6 0-.7-1.8-1.7-4-2.3-6.2-1.7-111.2-26.5-124-29.4-23.5-5.2-40.6-7.1-49.3-5.6"/>
        <path d="M241.9 253.5c-4.8 2.6-6.4 7.7-6.4 20.6 0 11.6 0 11.7 4 19.4 8.3 16.1 18.6 15 23.1-2.6 4-15.6-2.2-33.8-12.9-37.8-3.6-1.4-4.6-1.3-7.8.4"/>
        <path d="M63.6 289.1c-19 2.8-49 14.4-53.5 20.8-15.2 21.3-12.5 81.9 6 139.1 4.4 13.5 12.9 35 13.9 35 2.3 0 27.1-8.2 47-15.5 27-10 31.4-11.2 33.5-9.5 5.2 4.3 12.3 38.9 12.8 62.1l.2 10.8-3.5 3.6c-1.9 2-5.9 4.8-8.8 6.2-4.4 2.1-6.2 2.5-10.6 2-9.3-.9-19.7-8-30.1-20.5-14.3-16.9-23.2-24.4-29.4-24.6-3-.1-3.7.3-3.9 2.1-.6 4.2 9.7 21.1 26.2 42.8 12.6 16.7 24.4 28.3 33.4 32.8l7.1 3.5 10.9-2.4c16.8-3.6 38.6-9.2 44.6-11.5 6.1-2.2 14.1-8.9 18.7-15.5 3.9-5.7 9.1-8.6 22.2-12.3 18.1-5.2 29.1-11 32.2-17.1 11.4-22.1.1-92-24-148.4-13.1-30.7-31.3-60.3-45.8-74.4l-5.5-5.4-17.3 5.8c-15.4 5.1-18.4 5.8-25.5 5.9h-8.2l-10.1-6.9c-7.9-5.5-11.4-7.2-16.3-8.2-7-1.5-7.8-1.5-16.2-.3"/>
        <path d="M560 541c-5.4 1.7-62.9 25.3-68.9 28.3-9.6 4.8-9.3 5.7 2.2 7.2 7 .9 12.4 7.5 17.4 21.2 3.1 8.5 3.1 14 .1 15.2-2.8 1.1-9.8 8.4-12.7 13.2-5.8 9.9-9.1 25.2-9.1 42.9 0 13.7 1.5 23.5 4.9 31.1 4.4 9.9 9.5 12.8 35.9 20.3 10.3 3 32.2 9.5 48.7 14.4 49.1 14.8 59.2 17 74.1 15.8 12.7-.9 18.2-2.4 20.2-5.2.9-1.4 2.4-3.4 3.2-4.5l1.6-2.1 39.9 6.1c34.5 5.2 92.6 13.7 254 37.1 18.7 2.7 68.4 9.9 110.5 16 90.2 13.1 149.3 21.4 164.3 23.1 10.2 1.1 11 1.1 13.5-.8 4.8-3.5 15.4-26.7 14-30.5-.7-1.8-7.7-2.8-97.3-14.9-36.8-4.9-84.3-11.4-105.5-14.5-146.4-20.9-350.5-54.2-368.3-60-9-3-13.2-14.2-10.9-29.4 1.5-10.8 5.6-19.2 13.2-27.3 3.6-3.9 6-7.3 5.7-8.1-.3-.7-3.1-2.8-6.2-4.6-6.7-3.8-8.7-6.5-9.3-13-.8-8.2-2.1-8.9-21.3-10.5-9-.8-34.2-2.3-55.9-3.5s-44.7-2.4-51-2.8l-11.4-.7-2.4-9c-3-11.8-2.8-26.8.5-33.1 2.5-4.7 8.3-10.2 12.5-11.6 3.2-1.1 3.6-2.8 1-5.1-2-1.8-3.3-2-7.2-.7"/>
        <path d="M717.5 650.2c-3.2 1.7-7.6 6.1-9.1 9-1.2 2.3-1.2 2.7.3 3.2 3 1.2 28.3 5.1 357.8 55.5 53.9 8.3 116 17.8 138 21.1s45.8 7 52.9 8c15.2 2.4 15.9 2.2 20-6.1 3.6-7.2 3.4-9.5-.6-10.8-6-1.9-38.9-6.9-202.3-30.6-295.6-43-347.7-50.5-351.4-50.5-2 0-4.5.6-5.6 1.2"/>
    </g>
</svg>
