<?xml version="1.0" encoding="UTF-8"?>
<svg data-bbox="0.123 2.067 1017.469 1277.921" viewBox="0 0 1019 1280" height="1706.667" width="1358.667" xmlns="http://www.w3.org/2000/svg" data-type="shape">
    <g>
        <path d="M418 2.6c-.8.1-15.2.8-32 1.4-68.8 2.6-87.5 3.6-89.8 4.9-1.3.7-3.2 2.7-4.2 4.4-1.9 3.1-2 5.9-2 102.5 0 110.2-.3 104.4 6.5 107.6 1.8.9 3.8 1.6 4.4 1.6s3 .6 5.3 1.4c2.4.8 10.4 3.3 17.8 5.6s14.6 4.5 16 5 9.3 3 17.5 5.5c8.3 2.6 17.5 5.5 20.5 6.4 3 1 8 2.6 11 3.5 3 1 16.1 5.1 29.1 9.1l23.7 7.4 21.3-3c11.8-1.6 27.7-3.8 35.5-4.9 7.7-1.1 15.3-2 16.8-2s4.1-.8 5.9-1.7c2.1-1.1 6-1.7 11.7-1.9 4.7-.1 15-1.1 23-2.3 8-1.1 18.1-2.6 22.5-3.1 13.6-1.9 21.8-3.1 26.5-4.2 2.5-.5 7.7-1.1 11.5-1.3 3.9-.1 10.4-.7 14.5-1.3 10.1-1.5 27.6-3.9 44.3-6.1 13.2-1.7 14.1-2 17-5l3.2-3.1.3-16.3c1-65.2 1.7-200.8 1-203.4-.5-1.8-2-4.1-3.5-5.3-2.6-2-3-2-138.2-1.9-74.6.1-136.3.3-137.1.5"/>
        <path d="m117.2 312.2.3 170.3h8L126 317l.5-165.5 67.3-.3 67.2-.2v-9H117z"/>
        <path d="M716.7 142.7c-.4.3-.7 2.4-.7 4.5v3.8l69.3.2 69.2.3.3 165.2.2 165.3 2.4.6c1.4.3 3.3.4 4.3.2 1.7-.3 1.8-6.5 2.1-170.6L864 142h-73.3c-40.4 0-73.7.3-74 .7"/>
        <path d="M307.2 263.8c-.9.7-1.2 64.1-1.2 312.8v311.9l4.5.3 4.5.3V576.7c0-284-.1-312.5-1.6-313.1-2.1-.8-4.6-.7-6.2.2"/>
        <path d="M676.3 263.8c-1 .6-1.3 64.7-1.3 312.8v311.9l4.5.3 4.5.3-.2-312.8-.3-312.8-3-.3c-1.6-.1-3.6.1-4.2.6"/>
        <path d="M475.6 279.5c-.3.9-.6 44.5-.6 97 0 104.8-.4 98 6.2 97.3l3.3-.3v-195l-4.1-.3c-3.1-.2-4.3.1-4.8 1.3"/>
        <path d="M1.6 501.3C.1 502.4 0 510.5.2 603.5l.3 101 8.5-.2c4.7-.1 13.9-.6 20.5-1.2 35.3-3 70.5-5.5 70.9-5.1.6.6-4.7 43.6-5.4 44.4-.3.2-6.4 1.2-13.5 2.1-18.2 2.2-39.5 5.4-40.6 6.1-1.3.8-1.1 7.5.4 10.4 1.6 3.2 7.3 6.4 17.2 9.6 14.8 4.7 12.7 4.7 48-.5 25.6-3.8 83.8-13.9 87-15.1 2.9-1.1 3.4-4.6.7-5.4-.9-.3-8-2.4-15.7-4.7-13.5-4-14.5-4.2-29.9-4.5-8.7-.2-16.3-.7-16.7-1.1-1.9-1.9-3.1-21.8-2-32.4.6-5.7 1.5-10.7 1.9-11.1.7-.7 53.5-5.2 89.8-7.7 6.7-.4 12.6-1.1 13.3-1.5 1.6-1 1.6-166.2 0-167.2-1-.6-30.1-3.2-54.9-4.8-5.2-.4-29.1-2.3-53-4.2s-49.6-4-57-4.5c-7.4-.6-18.4-1.4-24.5-1.9-6-.5-17.7-1.4-25.9-2S4.4 500.7 4 500.5s-1.5.1-2.4.8"/>
        <path d="M366.7 501.1c-1.6.9-1.7 7.3-1.7 102 0 88.9.2 101 1.5 101.5.8.4 21.9-1 46.8-3 24.8-2 46.7-3.6 48.5-3.6 3 0 3.2.2 3.2 3.2-.1 3.8-4.7 40.9-5.2 41.4-.2.2-4.6.8-9.8 1.4-19.3 2.3-44.5 6.1-45.4 7-.4.4-.5 2.8-.1 5.1 1.2 7.1 5.1 10.1 19.1 14.5 12.7 4 17.6 4.4 28.9 2.5 3.3-.6 15-2.4 26-4.1 19.2-3 37.9-6.1 57-9.5 5-.9 11.6-2 14.7-2.6 8.3-1.4 10.8-2.5 10.8-4.9 0-1.1-.1-2-.3-2s-7.3-2.1-15.8-4.6c-15.2-4.5-15.6-4.6-31.9-4.9l-16.5-.3-1.1-6.4c-2.3-12.7-1.1-37.3 2-38.4.6-.2 15.3-1.5 32.6-2.9s36.5-2.9 42.6-3.5c6-.5 13.7-1 17-1 3.2 0 6.9-.6 8.2-1.3l2.3-1.2V603c-.1-45.4-.1-82.8-.1-83.2 0-1.1-11.1-2.1-56.5-5.3-11.5-.8-23.5-1.7-26.5-2s-11.2-.9-18.2-1.5c-14.5-1.1-32.1-2.5-50-4-31.4-2.5-43.6-3.5-64.2-5-8.2-.6-15.2-1.2-15.5-1.4-.4-.3-1.4 0-2.4.5"/>
        <path d="M737.6 501.2c-1.4.8-1.6 11.1-1.6 101.9 0 91.3.2 101 1.6 101.6.9.3 13.1-.4 27.2-1.5 45.8-3.8 71.1-5.6 71.6-5.2.2.3.1 2.7-.4 5.5-.4 2.7-1.3 9.5-2 15-1.8 15.9-3.2 24.5-3.9 24.5-.4 0-8.1.9-17.2 2-23.2 2.8-36.3 5.1-37.1 6.4-.4.6-.5 2.9-.2 5.1.9 6.3 5.4 9.7 19.1 14.1 12.3 4 18.2 4.5 28.4 2.6 3-.6 8.8-1.5 12.9-2.1 4.1-.7 23.7-3.9 43.5-7.2s38.6-6.5 41.7-7c7.5-1.2 10.8-2.5 10.8-4.3 0-2.3-1.8-3.1-17.5-7.6-14.4-4.1-15.6-4.3-30.5-4.6-15.4-.3-15.5-.3-16.8-2.8-2.8-5.4-2.4-38.9.5-41.6.7-.8 10.1-1.6 52.8-5.1 7.2-.5 17.7-1.4 23.4-1.9 5.8-.6 13-1 16.2-1s6.9-.4 8.3-1l2.6-1V519.2l-4.7-.6c-4.6-.6-33.7-2.9-51.3-4.1-8.3-.5-46.1-3.5-70.7-5.5-16.3-1.3-33.6-2.7-51.3-4-8-.6-18.4-1.5-23.1-2-4.8-.6-11.5-1-15-1.1-3.5 0-8.5-.4-11.1-.8-2.5-.4-5.4-.4-6.2.1"/>
        <path d="M584.5 764.7c-3.8.7-13.3 2.4-21 3.8-7.7 1.3-19.2 3.3-25.5 4.5-14.1 2.5-32.8 5.8-39.5 6.9-2.7.5-8.8 1.6-13.5 2.4-4.7.9-16.6 3-26.5 4.7-9.9 1.8-25.4 4.5-34.5 6.1-35.7 6.3-39.7 7-44.8 7.9-6.4 1.1-6.6 1.2-8.2 5-1 2.5-1 3.3.2 4.8.8.9 4.6 5.5 8.4 10.2 34.7 42 36.5 44.1 38.7 43.4 1.2-.3 9.6-3 18.7-6 9.1-2.9 19.7-6.3 23.5-7.4 3.9-1.2 10.8-3.5 15.5-5 8.6-2.9 13.4-4.4 45.5-14.5 9.9-3.1 20.5-6.5 23.5-7.5s13.6-4.4 23.5-7.5 19.1-6 20.5-6.5 11.3-3.7 22-7.1c28.3-8.9 34.4-11 35.3-11.9 1.7-1.6-.5-5.2-4.1-6.7-2.1-.8-5.5-2.3-7.8-3.4-2.2-1-6.5-2.7-9.4-3.9s-7.2-2.9-9.4-4c-5.7-2.5-16.4-6.9-20.6-8.4-2.8-1-4.9-1-10.5.1"/>
        <path d="M214.5 765.6c-4.4.8-11.4 2-15.5 2.8s-13.1 2.4-20 3.6-19.7 3.4-28.5 5-26.6 4.7-39.5 7c-12.9 2.2-32.3 5.7-43 7.6-10.7 1.8-24.9 4.3-31.5 5.4-6.6 1.2-13.8 2.5-16 3s-5.8 1.2-8.1 1.5c-3.1.5-4.4 1.3-5.8 3.6-2 3.4-1.8 4.1 5.1 12.1 2.1 2.5 11.9 14.2 21.7 26.1 9.8 12 18 21.7 18.2 21.7s7.2-2.2 15.6-4.9 24.1-7.7 34.8-11.1 22-7 25-8 12.3-3.9 20.5-6.5c8.3-2.6 18.8-6 23.5-7.5 4.7-1.6 17.3-5.6 28-9 10.7-3.3 21.3-6.7 23.5-7.5 2.2-.7 12.8-4.1 23.5-7.5 35.2-11.2 35.5-11.3 35.8-13.7.4-2.8-1.9-4.3-13.4-8.9-4.9-2-10.2-4.2-11.9-4.9C242 768.9 229 764 226 764.1c-1.9 0-7.1.7-11.5 1.5"/>
        <path d="M944.5 766.6c-7.1 1.3-20.9 3.8-30.5 5.5-9.6 1.6-19.9 3.4-22.7 4-27.3 4.9-38.4 6.8-55.8 9.9-9.9 1.7-22.7 3.9-28.5 5-5.8 1-16.1 2.8-23 4-6.9 1.1-14.3 2.5-16.5 3-2.2.4-7.1 1.3-11 2-3.8.6-8.2 1.4-9.8 1.7-3.8.7-6.5 5.8-4.7 8.7.7 1.2 11.2 13.9 23.2 28.4 19.2 23 22.2 26.2 24.1 25.6 1.2-.4 9.6-3 18.7-5.9s25.3-8.1 36-11.5 22.7-7.3 26.5-8.5c3.9-1.2 13.1-4.2 20.5-6.5 7.4-2.4 17.3-5.5 22-7.1 4.7-1.5 17.3-5.5 28-8.9 10.7-3.3 21.3-6.7 23.5-7.5 2.2-.7 12.8-4.1 23.5-7.5s21.6-6.9 24.2-7.7 4.9-2.1 5.2-3c.8-2.1-1-5-3.6-5.9-1.3-.4-4.6-1.7-7.3-3-2.8-1.2-7.5-3.2-10.4-4.4-3-1.1-7.3-2.9-9.5-4-13-5.9-21.9-9-25.3-8.9-2.1 0-9.6 1.2-16.8 2.5"/>
        <path d="M195.7 917.4c-.4 1-.7 46.5-.7 101.1 0 89.2.2 99.5 1.6 100.9.8.9 1.9 1.4 2.3 1.1.5-.2 7.5-.9 15.7-1.5s17.4-1.3 20.4-1.5c29.5-2.6 58.3-4.6 59.3-4.2 1.5.6 1.6-.1-3.2 37.5-.8 7-1.8 8.2-7.2 8.2-3 0-25.2 2.9-43.4 5.7-5.5.9-6.3 2.3-5 8.9.8 4.5 5.2 7.7 15.6 11.3 15.8 5.5 16.8 5.6 32.4 3.2 35.9-5.5 96.7-15.7 105.3-17.6 1.5-.4 2.2-1.3 2.2-2.8 0-2.1-1.4-2.7-16.2-7.2-16-4.8-16.6-4.9-32.4-5.3l-16.2-.4-.5-4.7c-1.6-12.8-1.8-19.5-.8-28.6.7-5.4 1.7-10.2 2.3-10.6 1.1-.7 7.5-1.4 21.8-2.4 4.1-.3 16.1-1.2 26.5-2 10.5-.8 25.5-2 33.5-2.6s16.1-1.4 18-1.8l3.5-.7.3-82.9c.1-45.6-.1-83.2-.6-83.7-.6-.6-72.6-6.7-109.7-9.3-7.5-.5-87.9-6.9-101-8-22.2-1.9-23.2-1.9-23.8-.1"/>
        <path d="M564.7 917.4c-.4 1-.7 46.5-.7 101.1 0 89.2.2 99.5 1.6 100.9.8.9 1.9 1.4 2.4 1.1s7.3-1 15.2-1.5c7.8-.5 16.8-1.2 19.8-1.5 29.2-2.6 60.3-4.6 61-3.9.4.5.5 3.4 0 6.4-.4 3-1.3 9.8-2 15-.6 5.2-1.6 12.5-2.2 16.3-1.1 7.7.3 7-16.3 8.7-6 .7-15.3 1.8-20.5 2.6s-11.6 1.7-14.2 2.1c-5.6.7-6.4 2.2-4.8 8.2 1.7 6.6 7.1 9.7 26 15.2 6.9 2 8.2 2.1 15.5 1 25.2-3.7 104.9-16.9 112.3-18.6 1.5-.4 2.2-1.3 2.2-2.9 0-1.8-.8-2.5-4.2-3.5-9.9-2.8-18.6-5.5-22.8-6.9-3.7-1.2-21-2.3-36.6-2.2-3.1 0-4.3-31.7-1.6-41.5 1-3.6-4.2-2.9 60.6-8 31.5-2.5 43.1-3.7 43.7-4.7.5-.7.9-38 .9-82.9 0-69.5-.2-81.8-1.4-82.8-.8-.7-4.1-1.4-7.3-1.7-3.2-.2-14.1-1.1-24.3-1.9-26.6-2.1-62.8-4.9-77-6-4.1-.3-30.2-2.4-58-4.6-73.1-5.8-66.6-5.5-67.3-3.5"/>
        <path d="M414 1180c-2.5.4-9.9 1.8-16.5 3-6.6 1.1-14.2 2.5-17 3-2.7.5-10.2 1.8-16.5 2.9s-16.7 2.9-23 4.1c-6.3 1.1-18 3.2-26 4.6s-24.6 4.3-37 6.5-27.4 4.9-33.5 5.9c-9.6 1.7-27.2 4.9-37.3 6.7-3.4.6-7.8 5.4-6.9 7.6.3.7 9.6 12.2 20.8 25.7s21.4 25.8 22.5 27.3c2.3 2.8 4.2 3.3 7.2 1.8.9-.5 9.8-3.5 19.7-6.6s24.8-7.8 33-10.5c8.3-2.6 23.1-7.3 33-10.5 9.9-3.1 20.5-6.5 23.5-7.5s12.9-4.2 22-7 19-6 22-7 13.6-4.4 23.5-7.5 21.8-6.9 26.5-8.5c4.7-1.5 11.8-3.8 15.8-5 6.1-1.9 7.2-2.6 7.2-4.5 0-1.2-.6-2.7-1.2-3.3-1.2-.9-34.4-15.2-35.4-15.2-.2 0-3.4-1.4-7.1-3.1-7.5-3.5-12.4-4.2-19.3-2.9"/>
        <path d="M776.5 1181.1c-13.2 2.4-18.6 3.4-33 5.9-6.6 1.1-14.2 2.5-17 3-7.6 1.4-21.8 3.9-34 6-13.3 2.3-63 11.1-82.2 14.6-4.9.8-11 1.9-13.8 2.4-2.7.5-8.8 1.6-13.5 2.4-4.7.9-9 1.6-9.5 1.6-.6 0-1.9 1.6-2.9 3.5-1.6 3-1.7 3.7-.5 5.2 1.6 2 34.2 41.5 39.8 48.1 2 2.4 3.8 4.8 3.9 5.3.5 1.2 3.8 1.2 6-.1.9-.5 5.5-2.1 10.2-3.5 4.7-1.5 13.5-4.2 19.5-6.1 6.1-2 15.1-4.8 20-6.4 5-1.5 20.5-6.5 34.5-11s34.1-10.8 44.5-14.2c10.5-3.3 22.8-7.3 27.5-8.8 4.7-1.6 13.5-4.4 19.5-6.3 6.1-1.9 19.7-6.3 30.3-9.7 25.2-8 25.7-9.2 8.2-16.6-5.8-2.4-11.5-4.9-12.7-5.4-20.3-8.9-28.6-12-31.5-11.9-1.8.1-7.8 1-13.3 2"/>
    </g>
</svg>
