<?xml version="1.0" encoding="UTF-8"?>
<svg data-bbox="0 0.06 1280 1274.94" viewBox="0 0 1280 1275" height="1700" width="1706.667" xmlns="http://www.w3.org/2000/svg" data-type="shape">
    <g>
        <path d="M128 1.5c-30.8 4.6-56 18.6-77.2 43C32.3 65.6 17 94.6 4.9 131.3L0 146.2l.3 500.6.2 500.7 2.3 9.7c6.2 27.1 16.9 45.8 36.6 64.5 5.2 4.9 13.6 11.7 18.8 15.2 20.7 14 52.9 27.2 85.1 35l12.7 3.1 498.3-.3 498.2-.2 10-2.3c59.5-13.7 97.1-63.1 115.4-151.6l2.1-9.9V155.5l-2.5-10.5c-19.1-78.8-54.7-125.5-106.8-140-18.9-5.3 10-5-532-4.9C238.9.2 134.8.5 128 1.5m885.5 137.6c3.9 2.2 6 4.6 7.4 8.8.8 2.4 1.1 21.1 1.1 63.4 0 58.6-.1 60.2-2.1 64.3-1.5 3.1-3.2 4.8-6.3 6.3-4.1 2-5.8 2.1-48.5 2.1h-44.3l-6.1 3.2c-9.4 5-17.6 13.7-22.5 23.8-6.8 13.9-7.6 20.3-7.7 57.5 0 31.1.1 32.1 2.2 36.1 1.4 2.6 3.6 4.8 6 6 3.6 1.8 7.4 1.9 66.6 2.2l62.7.3V532H898.4l-4.4 2.2c-3.4 1.8-5.1 3.5-7 7.3l-2.5 4.9-.3 290.8-.2 290.8h-94.3c-89.7 0-94.4-.1-98.3-1.9-2.5-1.2-5-3.3-6.5-5.7l-2.4-3.9-.3-292.3L682 532H562v-52.4c0-34.7.4-53.4 1.1-55.3 1.3-3.5 4.5-7 8.4-9.1 2.6-1.5 8.8-1.8 50.5-2.2 37.7-.4 48-.8 50-1.9 3.7-2 7.1-5.3 8.3-8.1.7-1.6 1.3-17 1.8-41.5.4-27.6 1.1-42.5 2.3-51 5.5-39.9 16.3-71.3 33.3-97 9.2-13.9 28.3-32.9 42.3-42.1 29.2-19.4 64.5-30.2 109-33.3 6.3-.5 40.8-.8 76.5-.7 58.3.1 65.3.3 68 1.7"/>
    </g>
</svg>
