<?xml version="1.0" encoding="UTF-8"?>
<svg data-bbox="220.292 275 595.808 426.965" viewBox="0 0 1024 1024" height="1365.333" width="1365.333" xmlns="http://www.w3.org/2000/svg" data-type="shape">
    <g>
        <path d="M541.3 278.9c-1.6 2.1-3.3 4.7-3.9 5.7-1 1.7-1.3 1.7-7.3 0-8.9-2.5-9.8-.5-1.8 3.6 7.5 3.8 55.7 34.9 61.7 39.7 4.3 3.5 5.1 2.3 1.8-2.9-2.6-4.2-3-5.6-2.6-9.5.5-3.9 1.4-5.8 5.2-11.1.7-.9.3-1.9-1.5-3.3-3.1-2.6-3.3-2.6-8.4.9-2.4 1.6-5.1 3-5.9 3-.9 0-4.8-2-8.6-4.5-7.1-4.5-7.1-4.5-6.8-11.6.3-7 .3-7-8.7-10.4-4.9-1.9-9.3-3.5-9.7-3.5-.5 0-2 1.8-3.5 3.9"/>
        <path d="M503.9 284.8c-3.4 2.7-40.1 26.3-41.6 26.9-1 .4-1.3-1.5-1.3-8.6 0-9.1 0-9.1-11.5-9.1s-11.5 0-11.5 16.4c0 16.1-.1 16.5-2.4 18.3-1.2 1-14.7 9.7-29.9 19.3s-27.6 17.8-27.7 18.2c0 .8 2.3 1.9 14.8 7 7.4 2.9 7.4 2.9 23.5-7.5 8.9-5.7 24.5-15.7 34.7-22.2s26.8-17.1 36.8-23.7c10.1-6.5 18.6-11.8 18.9-11.8.2 0 5.9 3.5 12.6 7.9 25.6 16.4 94.6 60.1 95.1 60.1 1.7 0 21.6-9.4 21.6-10.1 0-.5-.8-1.3-1.7-1.6-1.8-.7-18.8-11.3-51.3-32.3-9.6-6.2-20.3-13-23.7-15.1-9.5-5.9-39.1-24.7-45.3-28.9-3-2-6-3.9-6.6-4.3-.7-.4-2.2.1-3.5 1.1"/>
        <path d="M599.5 311.6c-6.2 6.6-.1 17.4 8.8 15.7 3.6-.7 7.7-5.7 7.7-9.3 0-1.6-1.1-4.2-2.6-5.9-2.2-2.6-3.3-3.1-7-3.1-3.6 0-5 .5-6.9 2.6m9.9 3c2 1.9 2 3.4 0 6.2-1.9 2.7-2.5 2.7-5.4.2-3.5-3.1-2-7 3.2-7.9.4 0 1.4.6 2.2 1.5"/>
        <path d="M622.7 310.7c-.2.5-.2 2.8.1 5.3.4 4.6.4 4.6 7.5 6.8 8 2.5 13.7 6.4 17.6 11.8 2.2 3.1 2.6 4.7 2.6 10.8 0 6.2-.5 8.1-3.5 14.1-4 8-17.3 22.5-26.9 29.5-3.4 2.5-6.1 4.8-6.1 5.2s.8 1.1 1.7 1.7c2 1.1 1.7 1.5-6 9.8-7.8 8.3-2.8 6.1 12.8-5.5 21.7-16.2 36.3-31.1 42.6-43.5 11.2-21.8.3-37.7-30-43.7-5.8-1.2-10.8-2.3-11.2-2.6-.4-.2-.9-.1-1.2.3"/>
        <path d="M494 329.5c0 5.5 0 5.5 4.9 5.5s4.9 0 5.3-4.8c.3-2.6.3-5 .1-5.5-.2-.4-2.6-.7-5.4-.7-4.9 0-4.9 0-4.9 5.5"/>
        <path d="M508 329.4c0 5.5 0 5.5 5.3 5.3 5.2-.2 5.2-.2 5.2-5.2s0-5-5.2-5.3c-5.3-.3-5.3-.3-5.3 5.2"/>
        <path d="M494 342.9c0 5.1 0 5.1 5.4 5.1s5.4 0 5.1-4.8c-.3-4.7-.3-4.7-5.4-5s-5.1-.3-5.1 4.7"/>
        <path d="M508 343c0 5 0 5 5.4 5s5.4 0 5.4-5 0-5-5.4-5-5.4 0-5.4 5"/>
        <path d="M448 374.7c0 10.9.3 13.3 2 16 3.2 5.4 6.3 6.3 21.1 6.3 13.1 0 13.1 0 17-4.4 2.2-2.4 5.9-5.4 8.2-6.5 5.6-2.7 14.6-2.8 20.3-.2 4 1.8 11.4 8.5 11.4 10.3 0 .6 6.3.8 15.1.6 15.1-.3 15.1-.3 18.5-4 3.4-3.8 3.4-3.8 3.4-17.3s0-13.5-58.5-13.5-58.5 0-58.5 12.7"/>
        <path d="M576.6 377.5c-.9 4.5-7.5 25.5-9.1 29.3-.8 1.8-1.5 3.5-1.5 3.9 0 .3 3.6.3 7.9 0 4.4-.3 8.2-.3 8.4 0 .5.4-1.7 5.6-9.4 22.1-2.1 4.6-3.9 8.8-3.9 9.3 0 2.2 2.1.5 5.1-3.9 4.2-6.2 16.7-21.9 24.6-30.9 3.5-3.9 6-7.3 5.6-7.6-.5-.2-4.4-.1-8.8.3s-8.4.3-8.9-.1c-.4-.4.3-2.2 1.7-4.1 1.3-1.8 3.5-5.3 4.7-7.8 1.3-2.5 3.6-6.4 5.1-8.7 1.6-2.3 2.9-4.3 2.9-4.5s-5.4-.4-11.9-.3c-11.9 0-11.9 0-12.5 3"/>
        <path d="M374.3 390.3c-23.3 24.3-28.9 41.8-17.4 54.9 5 5.7 14.9 10.3 27.9 13 17.2 3.6 46.4 2.7 71.7-2.2 5.5-1.1 11.6-2.1 13.5-2.2 4.8-.4 4.1-2.1-1.2-3-2.3-.4-5.5-1.7-7-2.8-2.4-1.8-3.4-1.9-6.6-1.1-13.1 3.5-49 3.9-60.7.7-17.9-5-25.9-12.7-25.8-25.1.1-7.3 3-14.2 10.2-23.6 5-6.6 12.4-13.9 14.1-13.9.6 0 1-.4 1-1 0-1-6.3-4-8.5-4-.7 0-5.7 4.6-11.2 10.3"/>
        <path d="M499.4 392.9c-5.9 2.7-8.7 7.2-9.2 14.6-.3 5 0 6.6 2 9.5 3.6 5.4 8.3 8 14 8 8.9 0 14.4-4.1 16.7-12.5 2.1-7.9-1.4-15.4-8.9-19.3-5.3-2.7-9.2-2.8-14.6-.3m15.9 7.2c1.4 2.3.1 6.7-2.3 7.4-4.9 1.5-8.5-2.9-6-7.5 1.4-2.5 6.7-2.5 8.3.1"/>
        <path d="M462 419.7c0 18.6.5 20.4 5.9 24 3.4 2.3 3.6 2.3 37.8 2.3 38.1 0 39.6-.2 43.3-6.2 1.8-3 2-5 2-20.1 0-16.7 0-16.7-9.9-16.7s-9.9 0-10.3 6.4c-.5 8.6-4.4 14.9-11.8 19.3-4.7 2.8-6.3 3.3-12 3.3-7.8 0-13-2.2-18.2-7.6-4.3-4.5-6.8-10.8-6.8-17 0-4.4 0-4.4-10-4.4s-10 0-10 16.7"/>
        <path d="M407.7 406.4c-.3.8-3.6 2.9-7.2 4.5-7.4 3.4-7 1.8-3.8 14.6 2.3 9.4 2.3 9.4 10.6 9.7 7.2.3 7.2.3 9 4 1.9 3.8 1.9 3.8 8.9 3.8 3.8 0 6.8-.3 6.6-.8-4.6-8.8-7.6-16.7-9.7-25.4-2.6-10.8-2.6-10.8-6.1-10.8-1.9 0-4.5-.3-5.6-.6-1.4-.4-2.3 0-2.7 1"/>
        <path d="M617.4 413c-2.3 1.6-8.5 5.5-13.8 8.8-9.3 5.7-9.7 6-13 12.8-10.7 22.1-31.4 39.4-56.3 47.1-8 2.4-10.3 2.7-24.8 2.7-13.7.1-17.1-.3-23.8-2.2-10.3-2.9-19.1-7-27.7-12.8-7-4.7-7-4.7-15.8-3.5-4.9.6-12.1 1.1-16 1.1-4 0-7.2.4-7.2.8s1.8 2.5 4 4.7c4 3.9 4 3.9 9.9 1 6-2.8 6-2.8 12.8 2.2 7.2 5.3 7.1 5 5.8 14-.8 5.3-.8 5.3 8 9.3 4.8 2.2 9.2 4 9.9 4 .6 0 2.9-2 4.9-4.5 4.2-5 5.5-5.3 14.6-3.2 6 1.4 7.7 3.1 8.6 8.8.4 2.2 1.3 4.6 2.2 5.4 1.6 1.6 9.7 1.9 16.8.7 3.9-.7 4-.9 5.6-6.6.8-3.3 2.2-6.3 3-6.7.8-.5 4.5-1.5 8.4-2.3 6.9-1.5 6.9-1.5 11.6 3.6s4.7 5.1 9.1 3.5c2.3-1 6.6-3 9.3-4.5 5.4-3 5.3-2.8 4-11.7-.7-5-.7-5 5.3-9.8 3.3-2.6 6.8-4.7 7.7-4.7.8 0 3.3.9 5.5 2 6.3 3.2 7.4 2.7 14-5.6 3.3-4.1 6-7.8 6-8.1s-1.6-2.7-3.5-5.3-3.5-5.6-3.4-6.6c0-1.1 1.4-4.8 3.2-8.4 3.2-6.5 3.2-6.5 9.7-6.2 3.6.1 7-.1 7.6-.5 1.3-.9 5.4-15.1 5.4-18.7 0-1.3-.7-2.7-1.6-3-1.9-.7-1.2-1-6 2.4"/>
        <path d="M245.3 529c-7.2 1.5-12.3 5.1-15.2 10.7-1.7 3.3-1.4 12.1.6 15.3 2.3 4 9.5 7.6 18.9 9.7 5.2 1.1 8.7 2.5 10.2 4 2.7 2.7 2.8 3.7.2 6.3-3.1 3.1-14.7 2.8-21.9-.5-3-1.4-5.7-2.2-6.1-1.8-.3.4-1.5 2.8-2.5 5.2-1.9 4.3-1.9 4.4 0 5.8 3.9 2.8 12.9 4.8 22 4.8 10.6 0 16.8-2.4 21.3-8.3 2.3-3 2.7-4.5 2.7-9.9 0-6.2-.2-6.6-3.7-9.8-2.2-2-5.8-4-9-4.9-2.9-.8-7.9-2.2-11-3-6.1-1.7-8.8-3.7-8.8-6.5 0-5.1 8.8-7.3 18-4.6 8.9 2.6 9.1 2.6 10.6-2.5.8-2.5 1.4-5 1.4-5.6 0-3-19.6-6.1-27.7-4.4"/>
        <path d="M306.3 529c-9.7 2-16.9 7.6-21.2 16.2-2.5 5-3.1 7.4-3.1 12.8 0 9.5 2.3 15.5 8.5 21.6 6.4 6.4 12.9 8.9 23.5 8.8 17.1 0 29.6-11.2 30.8-27.4 1-14-6.8-26.1-19.7-30.6-5.5-1.9-13.7-2.5-18.8-1.4m15.7 14.2c13.8 9.4 10.3 29.9-5.7 33.3-4.2.8-10.5-1-14.2-4.1-8.6-7.2-7.5-23.1 2.2-29.3 4.6-3 13.3-2.9 17.7.1"/>
        <path d="M490.7 529c-10.2 2.6-19.6 11.2-22.3 20.8-4.2 14.3 3.3 30.1 17.1 36.4 7.6 3.4 19.1 3.2 26.5-.4 5.8-2.8 10-6 10-7.5 0-1.2-7.8-8.3-9.1-8.3-.5 0-.9.4-.9.8 0 1.9-8.3 5.4-12.9 5.4-11.4 0-18.2-8.5-16.8-20.9.6-5.2 2.9-8.8 7.8-12.1 2.9-2 4.4-2.3 9.5-2 5.7.3 7.1.9 13 5.2.8.7 2.4-.1 5.2-2.5 2.2-1.9 4.1-3.9 4.1-4.6.1-1.6-5.7-6.3-10.4-8.4-4.9-2.2-15.6-3.2-20.8-1.9"/>
        <path d="M580.1 529c-6.7 1.4-12.8 4.8-16.5 9.2-5.5 6.3-7 10.4-7.4 19.6-.4 7.4-.1 8.8 2.3 13.7 5.4 11.1 15.8 17 29.5 16.9 21.4-.2 35.4-18.6 29.6-38.9-2.3-7.7-10.6-16.4-18.1-18.8-6.6-2.1-14-2.8-19.4-1.7m16 14.3c5.6 3.8 7.9 8.1 7.9 14.9 0 7.4-2.2 12.2-6.9 15.3-7.2 4.6-15.1 4-21.6-1.6-8.1-7.1-6.8-22.5 2.4-28.6 4.8-3.2 13.5-3.2 18.2 0"/>
        <path d="M766.3 529c-10.6 2.2-16.4 8.5-16.5 18 0 5.8 2.5 10.6 7 13.2 1.6 1 7.3 2.9 12.7 4.3s10.4 3 11.2 3.6c1.9 1.7 1.6 5.3-.7 7.4-2.8 2.5-15.8 1.7-21.9-1.4-4.8-2.5-4.9-2.4-7.6 3.7-2.2 5.1-1.9 5.5 6.1 8.4 8.7 3.2 23 3.1 29.7-.1 11.9-5.8 14.1-21 4-27.7-1.8-1.2-6.3-2.9-10-3.9-12.1-3-15.2-4.4-15.9-7.2-.9-3.5 2.3-6.4 7.7-7 3.8-.4 7.8.4 16.4 3.2 1.6.5 2.2-.1 3.3-3.2 2.4-7 2.2-7.6-3.5-9.5-6.4-2.1-16.5-3-22-1.8"/>
        <path d="M355.9 530v29c0 28.5 0 28.5 21.5 28.8 21.6.2 21.6.2 21.6-5.8 0-5.9 0-5.9-14.2-6.2-14.3-.3-14.3-.3-14.8-23.3-.5-22.9-.5-22.9-7.2-23-3.8 0-6.8.2-6.9.5"/>
        <path d="M405.3 530.7c-.3.7-.3 10.1-.1 21 .3 18 .5 20.2 2.5 23.9 3 5.7 8.3 10 14.5 11.9 14 4.1 26.8-.7 32.4-12.2 2.9-5.8 2.9-5.8 2.9-25.8s0-20-6.8-20c-6.7 0-6.7 0-7 19-.3 19.9-.7 22.2-5.1 25.7-1.4 1.2-3.9 1.8-7.4 1.8-4.3 0-5.8-.5-7.7-2.4-3.6-3.6-4.5-8.7-4.5-27.1 0-17 0-17-6.6-17-4.3 0-6.8.4-7.1 1.2"/>
        <path d="M531.4 529.9c-.2.2-.4 13.4-.4 29.3 0 28.9 0 28.9 7.3 28.6 5-.2 7.2-.7 7.1-1.6-.1-.6-.2-13.7-.2-29-.2-27.7-.2-27.7-6.8-27.7-3.6 0-6.8.2-7 .4"/>
        <path d="M629.9 529.6c0 .5-.1 13.7 0 29.4 0 28.5 0 28.5 6.8 28.5s6.8 0 7.3-16 .5-16 10-4.5c5.3 6.3 11.3 13.6 13.4 16.2 3.8 4.7 3.9 4.8 9.7 4.8 5.9 0 5.9 0 5.7-29.1-.3-29.2-.3-29.2-7-29.3-6.8-.2-6.8-.2-6.8 11 0 11.5-.8 20.4-1.9 20.4-.3-.1-6.1-7-12.9-15.5-10.7-13.4-12.7-15.5-15.1-15.5-1.6 0-4.3-.3-6-.6-1.7-.4-3.1-.3-3.2.2"/>
        <path d="M697 558.5c0 29.5 0 29.5 22.8 29.3 22.7-.3 22.7-.3 22.7-5.8s0-5.5-15.5-6-15.5-.5-15.5-6 0-5.5 13.3-5.8 13.3-.3 13-5.8c-.3-5.6-.3-5.6-13.3-5.7-13-.2-13-.2-13-5.7s0-5.5 15-6c8.3-.3 14.9-.8 14.8-1.3-.2-.4-.3-3-.3-5.7 0-5 0-5-22-5s-22 0-22 29.5"/>
        <path d="M440 602c-1.1 1.1-2 2.6-2 3.3 0 2.4 3.1 5.7 5.3 5.7 3.1 0 6.7-2.7 6.7-5.1 0-2.5-3.4-5.9-6-5.9-1.1 0-2.9.9-4 2"/>
        <path d="M320.9 604.7c-.1.5 0 9.6.1 20.3.2 27.8.2 27.8 25.3 27.9 14.7.1 14.7.1 14.7-3.4s0-3.5-14.5-3.5c-13.3 0-14.7-.2-16.6-2.1-1.6-1.6-1.9-3-1.7-6.7.3-4.7.3-4.7 15.1-5 14.7-.3 14.7-.3 14.7-3.7s0-3.4-14.7-3.7c-14.8-.3-14.8-.3-14.8-6.8s0-6.5 16-6.7c16-.1 16-.1 16.3-3.7s.3-3.6-19.7-3.6c-11.1 0-20.1.3-20.2.7"/>
        <path d="M384 604.5c0 .3-.1 11.2-.1 24.2 0 23.8 0 23.8 17.8 23.8s17.8 0 17.8-3 0-3-14.5-3.1-14.5-.1-14.3-21.2c.3-21.2.3-21.2-3.2-21.2-1.9 0-3.5.2-3.5.5"/>
        <path d="M469 607.8c0 3.4 0 3.4 8.8 3.1 8.7-.3 8.7-.3 8.8 20.6.1 21 .1 21 3.5 21s3.4 0 3.4-21c0-20.9 0-20.9 8.8-20.6 8.7.3 8.7.3 8.7-3.2s0-3.5-21-3.3c-21 .1-21 .1-21 3.4"/>
        <path d="M531.4 605.4c-.3.8-.4 10.1-.2 20.8.4 26.9-.2 26.1 24.1 26.6 16.7.4 16.7.4 16.7-3.2s0-3.6-14.8-3.6c-17.6 0-18.5-.5-18-8.6.3-4.9.3-4.9 11.1-5.2 10.7-.3 10.7-.3 10.7-3.7s0-3.4-10.7-3.7c-10.8-.3-10.8-.3-10.8-6.8s0-6.5 15.2-6.7c8.4-.1 15.6-.4 16.1-.7.4-.2.7-1.7.6-3.3-.1-2.8-.1-2.8-19.8-3.1-16.4-.2-19.7 0-20.2 1.2"/>
        <path d="M606 605.6c-4.5 2-9.6 6.9-12.3 11.9-1.6 3-2.1 5.8-2.1 11s.5 8 2.1 11c5.6 10.6 17.7 16.1 28.8 13.2 5-1.3 13.5-6.1 13.5-7.5 0-.4-1.1-1.5-2.5-2.5-2.3-1.7-2.5-1.6-6 .8-17.3 11.6-37.5-8.2-26.1-25.6 5.8-8.7 19.9-10.6 27.3-3.7 2.1 2 2.2 2 4.7.2 1.4-1.1 2.6-2.4 2.6-2.9 0-1.2-4.9-4.4-9.5-6.2-4.3-1.7-16.3-1.5-20.5.3"/>
        <path d="M657 628.5c0 24.6 0 24.6 3.6 24.3 3.7-.3 3.7-.3 3.5-10.6-.2-10.2-.2-10.2 12.1-10.2 6.8 0 13.3-.3 14.6-.7 2.4-.6 2.4-.6 2.1 10.3s-.3 10.9 3.4 11.2 3.7.3 3.7-24.3 0-24.6-3.7-24.3c-3.8.3-3.8.3-3.5 11 .4 10.8.4 10.8-14.3 10.8s-14.7 0-14.4-10.8c.3-10.7.3-10.7-3.4-11s-3.7-.3-3.7 24.3"/>
        <path d="M440.5 614.9c-.3.2-.5 8.9-.5 19.3 0 18.9 0 18.9 3.7 18.6 3.8-.3 3.8-.3 3.9-19 .1-18.6.1-18.6-3.3-19-1.8-.2-3.6-.2-3.8.1"/>
        <path d="M566.1 625.4c-1.6 1.9-1 6.6 1 7.9 2.2 1.4 6.6.1 7.9-2.4 2.6-4.7-5.5-9.6-8.9-5.5"/>
        <path d="M225.6 666.9c-2.3 3.7-9.8 3.6 285.7 3.3 284.2-.2 285.2-.2 285.5-2.2s-.4-2-285.2-2c-170.4 0-285.7.4-286 .9"/>
        <path d="M331.3 680.6c-.8 2.1 1.3 4.2 2.8 2.7 1.3-1.3.5-4.3-1.1-4.3-.6 0-1.3.7-1.7 1.6"/>
        <path d="M462.7 679.7c-.4.3-.7 1.7-.7 2.9 0 1.9-.6 2.3-3.7 2.6-2.8.2-4.1.9-4.8 2.5-1.2 2.9-1.9 2.9-3.3-.1-1.6-3.5-4.9-4.2-8.1-1.9-4.6 3.5-3.7 10.4 1.5 11.7 3 .8 7.4-1.6 7.4-3.9 0-2.2 1.7-1.8 2.3.5.6 2.5 3.8 3.7 8.2 3.2 3.4-.4 3.4-.4 3.7-8.4.3-7.4-.7-11-2.5-9.1m-14.3 9.9c1.3 3.3-2.4 6.5-5 4.3-1.9-1.6-1.7-4.6.3-5.7 2-1.2 3.9-.6 4.7 1.4m13-.3c1.1 1.8 0 4.7-2.1 5.4-1.2.4-4.3-2.3-4.3-3.7s3.1-4.1 4.3-3.7c.6.2 1.5 1.1 2.1 2"/>
        <path d="M512.7 679.6c-1.4 1.5-.6 3.4 1.4 3.4 1.4 0 1.9-.5 1.7-1.7-.3-1.8-2-2.7-3.1-1.7"/>
        <path d="M633.3 680.6c-.9 2.3 1.3 4 3.2 2.4 1.2-1 1.3-1.6.4-2.6-1.5-1.8-2.8-1.8-3.6.2"/>
        <path d="M785.3 680.6c-.9 2.3 1.3 4 3.2 2.4 1.2-1 1.3-1.6.4-2.6-1.5-1.8-2.8-1.8-3.6.2"/>
        <path d="M342.3 682c-.3 1-1.6 2.6-2.9 3.5-3.5 2.3-3.4 8.8.1 11.1 3.2 2.1 7.1.7 8.5-3.1 1.1-3 .4-5.4-2.4-7.8-1.5-1.3-1.7-2-.8-2.4 1.8-.7 1.5-3.3-.4-3.3-.9 0-1.8.9-2.1 2m3.1 7.6c1 2.5.7 3.3-1.3 4.3-2.7 1.5-5.6-.9-4.7-3.7.9-2.6 5.1-3 6-.6"/>
        <path d="M481 688.4c0 4.7.4 8.7.9 9.1 1.5.9 1.9-.5 2.2-9 .3-6.9.1-8-1.4-8.3s-1.7.6-1.7 8.2"/>
        <path d="M523.2 681.2c-.7.7-1.2 1.5-1.2 2 0 .4-1.1 1.8-2.5 3.2-3.2 3.2-3.2 6 0 9.1 2.8 2.9 4.2 3.1 7.3.9 3.1-2.1 3.1-8.7 0-10.8-1.7-1.2-2-1.8-1-2.8.7-.7 1.2-1.6 1.2-2 0-1.2-2.4-1-3.8.4m2.2 7.4c2.2 2.1 2 4.1-.5 5.4-3.9 2.2-7-3.7-3.1-5.9.9-.6 1.8-1.1 1.9-1.1s.9.7 1.7 1.6"/>
        <path d="M648.4 682.5c.7 2.7.6 2.7-2.4 2.2-3.8-.8-7 2-7 6.1 0 4.6 2.2 6.7 7 6.5 2.3-.1 4.4-.3 4.5-.5.2-.2.4-3.9.6-8.3.4-7.2.2-8-1.5-8.3-1.6-.3-1.8 0-1.2 2.3m-1 6.1c.9.8 1.6 1.9 1.6 2.4 0 1-2.9 4-3.9 4-1.3 0-3.1-2.4-3.1-4s1.8-4 3.1-4c.4 0 1.5.7 2.3 1.6"/>
        <path d="M676 682.5c0 2.2-.4 2.5-3.5 2.5-2.6 0-3.9.6-5.1 2.5-3.4 5.2.9 10.7 7.9 9.8 3.7-.5 3.7-.5 3.7-8.9 0-6.8-.3-8.4-1.5-8.4-.9 0-1.5.9-1.5 2.5m-1 6c2.6 3.1-1.3 8.2-4.4 5.6-2.1-1.8-2-4.8.2-6 2.3-1.4 2.8-1.3 4.2.4"/>
        <path d="M719.7 680.7c-.3.4-.4 4.4-.3 8.8.2 5.9.6 8 1.6 8 1.8 0 2.1-16.6.3-17.2-.6-.2-1.3 0-1.6.4"/>
        <path d="M767 681.4c0 .8.5 1.8 1 2.1 1.3.8 4.2-1.4 3.4-2.6-.9-1.5-4.4-1-4.4.5"/>
        <path d="M813 682.4c0 2.3-.4 2.6-3.3 2.6-4.3 0-5.7 1.5-5.7 6.2 0 4.8 2.9 7 8.3 6.1 3.7-.6 3.7-.6 3.7-7.9 0-4.1 0-7.7.1-8.2 0-.4-.7-.8-1.5-1-1.1-.2-1.6.4-1.6 2.2m-.6 6.9c1.1 1.8 0 4.7-2.1 5.4-1.2.4-4.3-2.3-4.3-3.7s3.1-4.1 4.3-3.7c.6.2 1.5 1.1 2.1 2"/>
        <path d="M223 683c-4.4 4.4-3.3 11.1 2.3 13.8 3.7 1.8 8.7.7 8.7-1.9 0-2.2-.4-2.3-3-.9-2.5 1.3-6.6-.3-7.5-3-.4-1.3 0-3.1 1-4.6 1.5-2.4 2.1-2.5 6.1-1.9 2.4.3 4.4.2 4.4-.2 0-3.6-8.7-4.6-12-1.3"/>
        <path d="M389 688.9c0 4.6.5 8.3 1.1 8.6 1.4.9 2.1 0 2.3-2.6.2-3.5 2.3-3.4 5.6.2 3.3 3.7 5.1 3.3 3-.7-1.1-2-1.2-2.9-.2-4.4 3.2-5.2.3-9-6.9-9-4.9 0-4.9 0-4.9 7.9m9.5-1.9c0 2.1-.5 2.6-3.2 2.8-3.1.3-3.3.1-3.3-2.8s.2-3.1 3.3-2.8c2.7.2 3.2.7 3.2 2.8"/>
        <path d="M570.1 682.4c-2.4 2.9-.9 6 3.7 7.6 4.1 1.4 5.5 3.4 3 4.3-.7.2-2.6 0-4.1-.6-3.4-1.1-5.6.3-3.4 2.1 4.7 3.9 12.6 1.1 11.4-4-.5-1.7-1.9-3-4.8-4.1-4.9-1.9-4.4-4 1-3.5 2.7.2 3.6-.1 3.6-1.2 0-2.1-8.7-2.7-10.4-.6"/>
        <path d="M705.7 681.7c-.4.3-.7 3.9-.7 7.9 0 8 0 8 7 7.9 3.3 0 4.5-.4 4.5-1.5s-1.1-1.5-4-1.5c-3.3 0-4-.3-4-2 0-1.6.7-2 3.5-2 2.4 0 3.5-.5 3.5-1.5s-1.1-1.5-3.5-1.5c-2.5 0-3.6-.5-3.8-1.8-.3-1.4.4-1.7 4.2-1.7 3.4 0 4.6-.4 4.6-1.5s-1.3-1.5-5.3-1.5c-3 0-5.7.3-6 .7"/>
        <path d="M274.9 684.1c-.8 1.5-.8 2.4 0 3.2.6.6 1.1 3 1.1 5.3 0 3.5.4 4.4 2.1 4.9 3.3 1.1 4.8-1.2 2.1-3.1-2.6-1.8-2.9-5.9-.6-7.2 1.5-.8 1.5-1.1-.2-3.1-2.3-2.6-3-2.6-4.5 0"/>
        <path d="M751.2 683.6c-1.1 1.9-.3 11.4 1 13.1 1.4 1.7 4.8 1.6 4.8-.1 0-.8-.7-1.6-1.5-2-2-.7-1.9-6.3.1-7.4 1.5-.8 1.5-1.1-.5-3.1-2.5-2.5-2.7-2.6-3.9-.5"/>
        <path d="M239.2 685c-3.1 1.3-4.6 4.9-3.3 8.3 2 5.1 8.5 5.6 11.1.7 1.6-2.9 1.2-4.9-1.5-7.5-2.6-2.7-2.9-2.8-6.3-1.5m5.6 5.6c.2 1.1-.3 2.6-1.1 3.3-2.9 2.4-7-1.7-4.6-4.6 1.7-2 5.3-1.2 5.7 1.3"/>
        <path d="M265.6 685.3c-2.6 1.9-1.7 6 1.3 6.7 1.4.3 2.7 1.2 2.9 1.9.3 1-.3 1.1-2.7.6s-3.1-.3-3.1.9c0 .9 1.1 1.8 2.4 2.2 3.4.8 6.6-1.2 6.6-4.2 0-1.9-.6-2.6-3-3.1-3.3-.6-3.6-2.7-.4-2.9 3.6-.2 3.9-.5 2-1.9-2.4-1.8-3.7-1.9-6-.2"/>
        <path d="M293.3 685.3c-.5.6-.8 3.4-.5 6 .5 5.5 2.3 6.8 8 6 3.3-.5 3.3-.5 3-6.7-.4-7.2-2.2-8.2-2.6-1.4-.2 3-.8 4.8-1.8 5.2-2.6 1-3.4-.3-3.4-4.9s-1.1-6.3-2.7-4.2"/>
        <path d="M310.3 685.1c-4.6 1.7-5.5 6.8-1.8 10.4 2.7 2.8 4.3 3.1 7 1.2 2.3-1.8 1.1-4.1-1.4-2.7-2.4 1.2-5.5-1-4.9-3.6.3-1.5 1.1-1.9 4.2-1.7 3 .2 3.7-.1 3.4-1.4-.4-2.1-3.7-3.2-6.5-2.2"/>
        <path d="M322.3 685c-5 2-5.4 8.6-.7 11.6 2 1.4 3 1.5 4.9.6 1.4-.7 2.5-1.8 2.5-2.7 0-1.8-.5-1.8-2.9-.5-2.7 1.4-5.6-1-4.6-3.9.6-2 1.2-2.2 4.1-1.6 2.6.4 3.4.3 3.4-.9 0-.9-.9-2-1.9-2.6-2.2-1.1-1.9-1.1-4.8 0"/>
        <path d="M406 686c-2.9 2.9-2.7 8.5.5 10.6 2.9 1.9 7.5 1.2 7.5-1.1 0-1.1-.9-1.4-3.1-1.3-1.9.2-3.4-.2-3.6-1-.3-.8.8-1.2 3.6-1.2 3.4 0 4.1-.3 4.1-2 0-2.3-3.3-6-5.5-6-.8 0-2.4.9-3.5 2m5.8 2.7c.2.8-.6 1.3-2.2 1.3-2.5 0-3.3-1-1.9-2.4 1-1 3.6-.3 4.1 1.1"/>
        <path d="M420.9 684.8c-2.4.3-2.7.8-3.2 6-.6 5.8.2 8 2.3 6.7.7-.4 1-1.9.6-3.6-.8-4 .2-5.9 3-5.9 2.2 0 2.4.4 2.4 5.1 0 6.6 2.4 6.2 2.8-.4.3-4.2.6-4.7 2.7-4.7s2.4.5 2.7 4.7c.4 6.9 2.8 6.9 2.8-.1 0-6.4-2.4-9.2-6.6-7.6-1.3.5-3.4.6-4.6.2-1.3-.4-3.5-.6-4.9-.4"/>
        <path d="M469.5 686.5c-1.4 1.3-2.5 3.3-2.5 4.5 0 2.4 4.2 7 6.4 7 2.5 0 4.6-1.2 4.6-2.6 0-1-1-1.3-3.1-1.2-1.9.2-3.4-.2-3.6-1-.3-.8.8-1.2 3.6-1.2 3.3 0 4.1-.4 4.1-1.8 0-2.3-3.6-6.2-5.6-6.2-.8 0-2.6 1.1-3.9 2.5m6.3 2.2c.2.8-.6 1.3-2.2 1.3-2.8 0-4.3-1.5-2.4-2.3 2-.8 4.1-.3 4.6 1"/>
        <path d="M488.8 685.1c-2.8 1.6-2.1 2.9 1.3 2.7 1.9-.2 3.4.2 3.6.9.3.9-.6 1.3-2.6 1.3-3.3 0-5.1 2.2-4.4 5.1.6 2.3 2.4 2.9 6.7 2.2 3.5-.6 3.6-.6 3.6-5.4 0-3.8-.4-5.1-2.2-6.3-2.6-1.8-3.6-1.9-6-.5m5.2 7.8c0 .6-.5 1.3-1 1.6-1.5.9-4.3-.3-3.5-1.5.8-1.3 4.5-1.3 4.5-.1"/>
        <path d="M503.3 685.1c-4.9 1.8-5.4 8.5-.7 11.5 2 1.4 3 1.5 5 .5 2.6-1.1 2.8-3.9.3-3.2-4.2 1.1-6.8-1-5.5-4.4.5-1.4 1.3-1.6 4.2-1 3 .5 3.5.4 3.2-1.1-.4-2.2-3.7-3.4-6.5-2.3"/>
        <path d="M586.2 685.1c-2.6 1-4.5 5.3-3.6 8.1.9 2.9 4.8 5 7.8 4.2 3.8-.9 3.4-3.5-.5-3.2-1.9.2-3.4-.2-3.6-1-.3-.8.7-1.2 3.1-1.2 4.1 0 5.4-1.7 3.7-4.8-1.3-2.4-3.9-3.2-6.9-2.1m3.2 2.5c2.5.9 1.9 2.4-.9 2.4-2.4 0-3.2-1-1.8-2.3.8-.8.8-.8 2.7-.1"/>
        <path d="M610.8 685.2c-.2.7-.3 3.4 0 6.1.5 5.6 2.2 6.9 7.6 6 3.7-.6 3.7-.6 3.4-6.7-.4-7.2-2.2-8.2-2.6-1.4-.2 2.7-.7 4.9-1.3 4.9-3.1.5-3.4.1-3.9-4.5-.5-4.7-2.3-7.1-3.2-4.4"/>
        <path d="M726.9 686.1c-2.9 2.9-2.3 8.9 1.1 10.6 3 1.4 7 .7 7-1.3 0-1-1-1.3-3.1-1.2-1.9.2-3.4-.2-3.6-1-.3-.8.8-1.2 3.6-1.2 3.4 0 4.1-.3 4.1-2 0-2.3-3.3-6-5.5-6-.8 0-2.4.9-3.6 2.1m5.9 2.6c.2.8-.6 1.3-2.2 1.3-2.5 0-3.3-1-1.9-2.4 1-1 3.6-.3 4.1 1.1"/>
        <path d="M741.2 685c-4.7 1.9-4.8 9.5-.2 12 3 1.6 7 .5 7-2 0-2.3-.4-2.4-3-1-1.4.7-2.3.6-3.4-.6-1.8-1.8-1.9-2.4-.7-4.3.6-.9 1.8-1.1 4-.6 2.4.5 3.1.3 3.1-.9 0-.8-.9-2-1.9-2.6-2.2-1.1-1.9-1.2-4.9 0"/>
        <path d="M777 684.7c-5.9 2.1-5.1 11.3 1 12.8 3.3.8 7.1-1.8 5.3-3.6-.9-.9-1.5-.9-2.6 0-2.3 1.8-4.9.2-4.5-2.8.2-2.2.8-2.6 3.3-2.6 3 0 4-.7 3.3-2.4-.4-1.2-4-2-5.8-1.4"/>
        <path d="M794.3 684.8c-3.4.5-3 3.3.3 3 1.5-.2 2.9.3 3.1.9.3.8-.4 1.3-1.9 1.3-2.8 0-4.8 1.7-4.8 4.2s3 3.8 7 2.9c3.5-.7 3.5-.7 3.3-5.5-.2-2.6-.5-5.1-.8-5.6-.7-1.1-3.6-1.6-6.2-1.2m3.7 8.7c0 .8-.9 1.5-2 1.5s-2-.7-2-1.5.9-1.5 2-1.5 2 .7 2 1.5"/>
        <path d="M250.2 691.2c.3 7.3 2.1 8.4 2.8 1.8.4-3.7.9-4.6 2.7-4.8 2.3-.3 3.8 2.5 2.9 5.5-.7 2.3.8 4.8 2.3 3.9 1.4-.9 1.4-5.4 0-9.5-1-2.9-1.4-3.1-6-3.1-5 0-5 0-4.7 6.2"/>
        <path d="M284.2 691.2c.3 7.1 2.1 8.5 2.6 2.1.2-3 .9-4.6 2.3-5.3 3-1.6 2.3-3-1.6-3-3.6 0-3.6 0-3.3 6.2"/>
        <path d="M332 685.7c-.1.4-.2 2.9-.4 5.4-.4 5 .8 8.3 2.2 6.2 1.2-1.8.7-11.6-.6-12.1-.7-.2-1.2 0-1.2.5"/>
        <path d="M351 691.6c0 4.8.3 6.5 1.3 6.2.6-.3 1.3-2.4 1.5-4.9.3-4.5 1.5-6.1 3.9-5.2.8.3 1.3 2.1 1.3 4.8 0 4.5 1.6 6.8 3.1 4.4 1-1.6.1-8.8-1.4-10.7-.5-.6-2.9-1.2-5.3-1.2-4.4 0-4.4 0-4.4 6.6"/>
        <path d="M373.7 686.1c-3.8 2.2-.9 8.7 3.2 7.4 2.1-.6 3.6-3.8 2.6-5.5-1.2-1.9-4-2.9-5.8-1.9"/>
        <path d="M512.4 686.4c-.9 2.5.1 10.9 1.4 11.4.9.3 1.2-1.4 1.2-6.2 0-6.1-1.3-8.7-2.6-5.2"/>
        <path d="M531.8 690.7c-.2 3.2-.1 6.2.3 6.7 1.5 1.7 2.9-.7 2.9-5 0-4 .2-4.4 2.5-4.4s2.5.4 2.5 4.4c0 4.5 1.6 6.9 3 4.6 1-1.6.1-9.1-1.3-10.8-.5-.6-2.9-1.2-5.2-1.2-4.3 0-4.3 0-4.7 5.7"/>
        <path d="M596.6 687.2c-3.2 4.5-.9 9.2 4.3 9 2.1 0 3.1.3 2.8 1.1-.2.7-2 1.1-4.1 1-2.5-.2-3.6.2-3.6 1.1 0 3.1 7.1 3.5 10 .6 1.6-1.6 2-3.3 2-8.5 0-6.5 0-6.5-4.9-6.5-4 0-5.3.4-6.5 2.2m7.9 1.8c1.3 2-.6 5-3.1 5-2.6 0-4-2-3-4.5.6-1.7 5.1-2 6.1-.5"/>
        <path d="M625 690.9c0 3.3.5 6.3 1.1 6.6 1.7 1.1 2.3-.3 2.1-4.5-.2-3 .2-4.1 1.8-5 3.1-1.6 2.4-3-1.5-3-3.5 0-3.5 0-3.5 5.9"/>
        <path d="M633.8 690.2c-.5 6 0 8 1.6 7.5.6-.2 1.2-3.1 1.4-6.5.2-4.9 0-6.2-1.2-6.2-1 0-1.5 1.5-1.8 5.2"/>
        <path d="M654.5 686c-.7 1.1 1.2 2.1 3.5 1.7 2.9-.4 2.4 1.8-.6 2.3-2.2.4-3 1.1-3.2 3.2-.4 3.3 2 4.8 6.6 4.1 3.1-.5 3.2-.7 3.2-5.2 0-2.6-.5-5.2-1.2-5.9-1.5-1.5-7.4-1.6-8.3-.2m6.3 7.2c-.7 1.9-3.8 2.2-3.8.4 0-1 .9-1.6 2.1-1.6s1.9.5 1.7 1.2"/>
        <path d="M759.4 686.4c-.3.7-.4 3.5-.2 6.2.2 3.6.7 4.9 1.8 4.9s1.5-1.2 1.5-4.3c.1-3.1.6-4.7 1.8-5.3.9-.6 1.7-1.4 1.7-1.9 0-1.5-6-1.2-6.6.4"/>
        <path d="M768 691.6c0 4.8.3 6.5 1.3 6.2.7-.3 1.3-2.8 1.5-6.6.2-5.1 0-6.2-1.3-6.2-1.2 0-1.5 1.3-1.5 6.6"/>
        <path d="M786.2 691.2c.2 3.5.8 6.3 1.3 6.3.6 0 1.1-2.8 1.3-6.3.2-5.1 0-6.2-1.3-6.2s-1.5 1.1-1.3 6.2"/>
        <path d="M553.1 687.4c-1.6 1.9-1.1 4.6 1.2 6 2.5 1.6 5.2-.4 5.2-4 0-2.4-.5-3-2.6-3.2-1.4-.2-3.1.4-3.8 1.2"/>
        <path d="M688.7 686.7c-1.4 1.4-.6 5.3 1.3 6.3 3.8 2 7-1.2 5.4-5.4-.6-1.6-5.4-2.2-6.7-.9"/>
    </g>
</svg>
