<?xml version="1.0" encoding="UTF-8"?>
<svg data-bbox="151.1 87.793 1065.515 1016.62" viewBox="0 0 1280 1192" height="1589.333" width="1706.667" xmlns="http://www.w3.org/2000/svg" data-type="shape">
    <g>
        <path d="M162.1 89.4c-3.3 1.5-5.3 3.5-7.7 7.5l-3.3 5.4 9.9 19.6 9.8 19.6L287.1 251c64 60.2 155.8 146.6 204 192l87.6 82.5-18.1 12c-80.4 53.5-110.9 77.7-167 132.6-17.9 17.5-27.8 28.2-45 48.9-66.5 79.8-100.7 125.6-141.8 189.5-20.3 31.6-24.8 41.8-24.8 56.8 0 11.6 5.5 23.1 16.9 35 7.5 8 13.8 10.9 25.1 11.5 6.9.3 9.7 0 15-1.8 23.4-7.9 47.7-31.2 93.5-89.5C393.4 843 419.8 812.1 452 780.4c16.9-16.6 45.5-43.2 61.9-57.8 25.3-22.3 99-78.4 101.3-77 .6.4.8.3.5-.3-.9-1.4 1.9-3.7 3.4-2.7.7.4.9.3.5-.4-.3-.6.7-2 2.3-3.1 4.1-2.9 5.2-2.6 1.6.5l-3 2.6 3.3-2.2c1.8-1.2 3-2.5 2.7-3-.4-.7 31.7-25 33.1-25 .3 0 .2.6-.2 1.2-.4.8-.3 1 .2.5s.9-1.4.9-2c0-.5.6-1.2 1.4-1.5q1.35-.45.6.9c-.5.8-.4 1.1.1.6s.9-1.4.9-2c0-2.1 2.1-1.7 5.4 1.1l3.4 2.8-3.8 6.2c-2 3.4-4.1 5.9-4.6 5.7-.4-.3-1.1 0-1.5.6-.4.8-.3.9.4.5s1.2-.5 1.2-.2c0 1.4-9.4 15.5-10 15.1-.4-.3-.7.3-.6 1.2 0 1-.4 1.8-1.1 1.8-.6 0-1.5.4-2 .9s-.3.6.4.2c1.8-1 1.6.1-.6 3.8-1.1 1.9-2.5 7.8-3.5 15.1-1.9 13.9-.1 10.6-28.9 52-57.8 83-87.9 113.7-219.7 224-68.4 57.2-84.6 73.9-91.6 94.5-2.9 8.6-2.6 24.1.9 35.1 3.1 9.9 7 15.6 15.1 21.8 8.4 6.5 15.5 9 25.2 9.1 15.9 0 29.6-7.1 59-30.5 23.8-19 32.3-25.7 61-47.5 69.6-53.1 111.5-88.6 155.7-131.9 12.1-11.9 27.4-27.6 33.9-34.9 22.7-25.4 49.4-60.6 74.3-98l12.9-19.3 5.8 5.8c7.1 7 17.3 19.2 16.6 19.9-.3.2-1.3-.7-2.2-2.1-2.7-4.1-16.6-19.4-18.5-20.5-1.5-.8-2.8.6-8.5 9.1-3.6 5.5-6.6 10.3-6.6 10.7s1.4-1.4 3.1-4c1.7-2.7 3.4-4.8 3.8-4.8.8 0 9.1 17.1 9.1 18.7 0 .6.6 1.6 1.4 2.3 1.2.9 2 .4 4.1-3.1 2.9-4.6 4.5-4.1 4.5 1.5v2.9l3-4.1c1.7-2.3 3-4.7 3-5.2 0-1.2 3.7-.9 5.8.3.6.5 1.2 1.3 1.2 1.8 0 .6-.5.7-1.2.3s-.8-.3-.4.5c.4.6 1.1.9 1.6.6 2.3-1.4 18.9 29 26.5 48.5 2.9 7.3 5.6 12.7 7 13.8 1.3.9 24.7 23.1 52.1 49.2s64.3 61.2 81.9 78c17.7 16.8 57.6 54.8 88.9 84.5 34.8 33.1 58.2 54.6 60.4 55.6 12.5 5.4 32.2 6.9 45.7 3.5 31.4-8.1 60.7-36.3 75.9-73 6.5-15.6 9.5-33.2 7.7-44.7l-1-6.4-16.4-16c-9-8.8-71.8-70-139.6-136-94.5-92-124.2-120.4-127.4-121.7-2.3-.9-7.6-3-11.7-4.6-28-10.9-54.8-26-73.5-41.2-8.1-6.6-21.4-20.5-26.3-27.3l-3.2-4.6 9.7-9.9c10.7-10.8 24.2-21.4 31.3-24.4 2.4-1 9.8-3.5 16.5-5.5 13.2-3.9 21.6-7.6 28.5-12.7 7.9-5.8 16.8-25.8 21.5-48.4 3.2-15.3 5-36.8 3.8-45.5l-1-6.9 11.8-10.5C951 452.6 952 451.1 952 444c0-2.3 1.6-3.9 9.3-9.8 8.8-6.7 26.4-23.9 31.9-31.1 2.5-3.2 2.9-3.4 5.3-2.3 1.4.7 3 1.2 3.4 1.2.5 0 9.8-11.1 20.8-24.8 11-13.6 24.8-30.6 30.7-37.7 7.2-8.7 15.6-20.8 25.4-36.5 8-12.9 26.6-42.4 41.2-65.5 33.8-53.1 56.2-89.5 55.8-90.5-.2-.4-11.2-11.4-24.5-24.5L1127 98.8l-21.2 13.3c-26.8 16.7-66.9 42.4-108.7 69.4-24.6 15.9-35.2 23.5-44.5 31.5-6.6 5.9-22.4 19.3-35.1 30-37.9 31.9-40.5 34.3-40.5 36.8 0 1.3.4 3.1 1 4.1.8 1.6.1 2.4-4.6 5.6-11.7 7.7-30.9 28.8-35.5 38.8-1.2 2.5-1.5 2.7-5.9 2.1l-4.7-.6-11.8 13.1-11.9 13.1h-7.2c-19.8 0-51.4 5.1-68.9 11.2-7.2 2.5-19.3 8.3-21.7 10.5-2.7 2.4-6.3 11-10.2 24.2-2.1 6.8-4.7 14.9-6 18-4.7 11.6-16.3 26.7-34.5 45-9.3 9.4-30.9 28.4-34.3 30.2-1.4.7-39.4-35-206.8-194.5L208.8 105.2l-18.2-7.7c-9.9-4.3-19.4-8.3-21.1-9-2.6-1.1-3.6-1-7.4.9m563 474c-1.9 1.9-7 6-11.5 9.1-4.5 3-6.3 4.1-4.2 2.3 18.5-15.5 22.4-18.3 15.7-11.4"/>
        <path d="M667 611.5c1.3 1.4 2.6 2.5 2.8 2.5.3 0-.5-1.1-1.8-2.5s-2.6-2.5-2.8-2.5c-.3 0 .5 1.1 1.8 2.5"/>
        <path d="M642.8 625.3c-8.2 6-14.8 11.1-14.8 11.4s.8-.1 1.7-.8c1.5-1.2 1.6-1.2.9.6-1.3 3.3-3.5 12-3.1 12.3.2.2 1.6-.8 3.2-2.2 1.5-1.5 5.3-4.3 8.3-6.4 3-2 6-4 6.5-4.4 7-5.8 17.3-12.7 18.3-12.3.7.3 1.1.1.8-.4s0-1.1.7-1.4c.6-.3 2-1.8 3-3.5l1.7-3-6.2-.4-6.3-.3z"/>
        <path d="M658.3 629.7c-1.8.9-3.3 2-3.3 2.5 0 .4-.7.8-1.5.8-3.8 0-8.8 4.5-11.1 9.9-1.9 4.4-1.8 4.8.6 2.5 4.3-4.3 10.8-8.6 11.9-8 .5.3 1.6-.5 2.5-1.9s2.3-3.6 3.2-5c1.9-2.9 1.9-2.9-2.3-.8"/>
    </g>
</svg>
